<svg width="150" height="127" viewBox="0 0 150 127" fill="none" xmlns="http://www.w3.org/2000/svg">
<path d="M75 126.25H0V110.469H43.125C37.65 88.2961 21.075 70.9367 0 65.1766C4.8 63.9141 9.825 63.125 15 63.125C48.15 63.125 75 91.3734 75 126.25ZM150 65.1766C145.2 63.9141 140.175 63.125 135 63.125C113.025 63.125 93.9 75.5922 83.4 94.1352C85.575 99.343 87.375 104.787 88.425 110.469C89.4 115.598 89.925 120.884 89.925 126.25H104.925H149.925V110.469H106.8C112.35 88.2961 128.925 70.9367 150 65.1766ZM102.3 55.3922C108.15 38.9008 119.025 25.0922 132.975 15.9391C100.8 17.0437 75 44.7398 75 78.9062C75 78.9852 75 79.0641 75 79.0641C82.125 69.043 91.5 60.9156 102.3 55.3922ZM70.65 38.2695C64.35 20.9891 51.6 7.02266 35.25 0C46.05 14.6766 52.5 32.9828 52.5 52.9461C52.5 54.6031 52.275 56.1812 52.2 57.7594C55.425 59.6531 58.425 61.8625 61.35 64.2297C62.925 54.9188 66.225 46.1602 70.65 38.2695Z" fill="black"/>
</svg>
