<svg width="21" height="21" viewBox="0 0 21 21" fill="none" xmlns="http://www.w3.org/2000/svg">
<circle cx="8" cy="5" r="4" stroke="#1C274C" stroke-width="1.5"/>
<path d="M14 8C15.6569 8 17 6.65685 17 5C17 3.34315 15.6569 2 14 2" stroke="#1C274C" stroke-width="1.5" stroke-linecap="round"/>
<path d="M4.88915 19.5843C5.82627 19.8504 6.88256 20 8 20C11.866 20 15 18.2091 15 16C15 13.7909 11.866 12 8 12C4.13401 12 1 13.7909 1 16C1 16.3453 1.07657 16.6804 1.22053 17" stroke="#1C274C" stroke-width="1.5" stroke-linecap="round"/>
<path d="M17 13C18.7542 13.3847 20 14.3589 20 15.5C20 16.5293 18.9863 17.4229 17.5 17.8704" stroke="#1C274C" stroke-width="1.5" stroke-linecap="round"/>
</svg>
