<svg width="76" height="55" viewBox="0 0 76 55" fill="none" xmlns="http://www.w3.org/2000/svg">
<path d="M62.1818 13.75L48.3636 27.5H58.7273C58.7273 38.8781 49.4345 48.125 38 48.125C34.5109 48.125 31.1945 47.2656 28.3273 45.7187L23.2836 50.7375C27.5327 53.4188 32.5764 55 38 55C53.2691 55 65.6364 42.6938 65.6364 27.5H76L62.1818 13.75ZM17.2727 27.5C17.2727 16.1219 26.5655 6.875 38 6.875C41.4891 6.875 44.8055 7.73437 47.6727 9.28125L52.7164 4.2625C48.4673 1.58125 43.4236 0 38 0C22.7309 0 10.3636 12.3062 10.3636 27.5H0L13.8182 41.25L27.6364 27.5H17.2727Z" fill="#04C974"/>
</svg>
