<svg width="190" height="55" viewBox="0 0 190 55" fill="none" xmlns="http://www.w3.org/2000/svg">
<path d="M38.5625 22.2526C35.7992 22.2526 33.4613 24.0632 32.6668 26.5593C33.848 25.9616 35.1805 25.6276 36.5938 25.6276H39.6875C39.9969 25.6276 40.25 25.8808 40.25 26.1901C40.25 26.4995 39.9969 26.7526 39.6875 26.7526H36.5938C36.0102 26.7526 35.4441 26.8194 34.8957 26.9425C33.9852 27.1499 33.1414 27.5191 32.3855 28.0218C30.3465 29.3823 29 31.7062 29 34.3464V34.9089C29 35.3765 29.3762 35.7526 29.8438 35.7526C30.3113 35.7526 30.6875 35.3765 30.6875 34.9089V34.3464C30.6875 32.6343 31.4152 31.0944 32.5789 30.0151C33.275 32.6694 35.6902 34.6276 38.5625 34.6276H38.5977C43.2418 34.603 47 30.0257 47 24.3831C47 22.8855 46.7363 21.4616 46.2582 20.1784C46.1668 19.9358 45.8117 19.9464 45.6887 20.1749C45.0277 21.4124 43.7199 22.2526 42.2188 22.2526H38.5625Z" fill="#04C974"/>
<path d="M62.1818 13.75L48.3636 27.5H58.7273C58.7273 38.8781 49.4345 48.125 38 48.125C34.5109 48.125 31.1945 47.2656 28.3273 45.7187L23.2836 50.7375C27.5327 53.4188 32.5764 55 38 55C53.2691 55 65.6364 42.6937 65.6364 27.5H76L62.1818 13.75ZM17.2727 27.5C17.2727 16.1219 26.5655 6.875 38 6.875C41.4891 6.875 44.8055 7.73437 47.6727 9.28125L52.7164 4.2625C48.4673 1.58125 43.4236 0 38 0C22.7309 0 10.3636 12.3062 10.3636 27.5H0L13.8182 41.25L27.6364 27.5H17.2727Z" fill="#04C974"/>
</svg>
