<svg width="150" height="150" viewBox="0 0 150 150" fill="none" xmlns="http://www.w3.org/2000/svg">
<g clip-path="url(#clip0_100_572)">
<path d="M62.5 75C76.3071 75 87.5 63.8071 87.5 50C87.5 36.1929 76.3071 25 62.5 25C48.6929 25 37.5 36.1929 37.5 50C37.5 63.8071 48.6929 75 62.5 75Z" fill="black"/>
<path d="M64.6875 87.5624C47.625 86.9374 12.5 95.4374 12.5 112.5V125H72.125C56.6875 107.75 64.4375 88.1874 64.6875 87.5624Z" fill="black"/>
<path d="M121.438 112.625C123.688 108.938 125 104.625 125 100C125 86.1875 113.813 75 100 75C86.1875 75 75 86.1875 75 100C75 113.813 86.1875 125 100 125C104.625 125 108.938 123.625 112.625 121.438L128.688 137.5L137.5 128.688L121.438 112.625ZM100 112.5C93.125 112.5 87.5 106.875 87.5 100C87.5 93.125 93.125 87.5 100 87.5C106.875 87.5 112.5 93.125 112.5 100C112.5 106.875 106.875 112.5 100 112.5Z" fill="black"/>
</g>
<defs>
<clipPath id="clip0_100_572">
<rect width="150" height="150" fill="white"/>
</clipPath>
</defs>
</svg>
